<?xml version="1.0" encoding="UTF-8" standalone="no"?>
<!DOCTYPE svg PUBLIC "-//W3C//DTD SVG 1.0//EN" "http://www.w3.org/TR/2001/REC-SVG-20010904/DTD/svg10.dtd" [
 <!ATTLIST svg xmlns:xlink CDATA #FIXED "http://www.w3.org/1999/xlink">
]>
<!-- Generated by Graphviz version 2.20.3 (Wed Oct &#160;8 06:02:12 UTC 2008)
     For user: jwisniewski -->
<!-- Title: pf_tree_before Pages: 1 -->
<svg width="278pt" height="260pt" viewBox="0.00 0.00 278.00 260.00" xmlns="http://www.w3.org/2000/svg" xmlns:xlink="http://www.w3.org/1999/xlink">
<g id="graph0" class="graph" transform="scale(1) rotate(0) translate(4, 256)">
<title>pf_tree_before</title>
<polygon style="fill: white; stroke: white;" points="-4,4 -4,-256 274,-256 274,4 -4,4"/>
<!-- xs -->
<g id="node1" class="node"><title>xs</title>
<text text-anchor="middle" x="135" y="-229.4" style="font-family: Times New Roman;">xs</text>
</g>
<!-- d -->
<g id="node3" class="node"><title>d</title>
<ellipse style="fill: none; stroke: black;" cx="135" cy="-162" rx="27" ry="18"/>
<text text-anchor="middle" x="135" y="-157.4" style="font-family: Times New Roman;">d</text>
</g>
<!-- xs&#45;&gt;d -->
<g id="edge2" class="edge"><title>xs-&gt;d</title>
<path style="fill: none; stroke: black;" d="M135,-216C135,-208 135,-199 135,-190"/>
<polygon style="fill: black; stroke: black;" points="138.5,-190 135,-180 131.5,-190 138.5,-190"/>
</g>
<!-- b -->
<g id="node5" class="node"><title>b</title>
<ellipse style="fill: none; stroke: black;" cx="99" cy="-90" rx="27" ry="18"/>
<text text-anchor="middle" x="99" y="-85.4" style="font-family: Times New Roman;">b</text>
</g>
<!-- d&#45;&gt;b -->
<g id="edge4" class="edge"><title>d-&gt;b</title>
<path style="fill: none; stroke: black;" d="M126,-145C122,-136 117,-126 112,-116"/>
<polygon style="fill: black; stroke: black;" points="115.26,-114.717 108,-107 108.863,-117.56 115.26,-114.717"/>
</g>
<!-- g -->
<g id="node7" class="node"><title>g</title>
<ellipse style="fill: none; stroke: black;" cx="171" cy="-90" rx="27" ry="18"/>
<text text-anchor="middle" x="171" y="-85.4" style="font-family: Times New Roman;">g</text>
</g>
<!-- d&#45;&gt;g -->
<g id="edge6" class="edge"><title>d-&gt;g</title>
<path style="fill: none; stroke: black;" d="M144,-145C148,-136 153,-126 158,-116"/>
<polygon style="fill: black; stroke: black;" points="161.137,-117.56 162,-107 154.74,-114.717 161.137,-117.56"/>
</g>
<!-- a -->
<g id="node9" class="node"><title>a</title>
<ellipse style="fill: none; stroke: black;" cx="27" cy="-18" rx="27" ry="18"/>
<text text-anchor="middle" x="27" y="-13.4" style="font-family: Times New Roman;">a</text>
</g>
<!-- b&#45;&gt;a -->
<g id="edge8" class="edge"><title>b-&gt;a</title>
<path style="fill: none; stroke: black;" d="M84,-75C74,-65 61,-52 49,-40"/>
<polygon style="fill: black; stroke: black;" points="51.546,-37.5962 42,-33 46.5962,-42.546 51.546,-37.5962"/>
</g>
<!-- c -->
<g id="node11" class="node"><title>c</title>
<ellipse style="fill: none; stroke: black;" cx="99" cy="-18" rx="27" ry="18"/>
<text text-anchor="middle" x="99" y="-13.4" style="font-family: Times New Roman;">c</text>
</g>
<!-- b&#45;&gt;c -->
<g id="edge10" class="edge"><title>b-&gt;c</title>
<path style="fill: none; stroke: black;" d="M99,-72C99,-64 99,-55 99,-46"/>
<polygon style="fill: black; stroke: black;" points="102.5,-46 99,-36 95.5001,-46 102.5,-46"/>
</g>
<!-- f -->
<g id="node13" class="node"><title>f</title>
<ellipse style="fill: none; stroke: black;" cx="171" cy="-18" rx="27" ry="18"/>
<text text-anchor="middle" x="171" y="-13.4" style="font-family: Times New Roman;">f</text>
</g>
<!-- g&#45;&gt;f -->
<g id="edge12" class="edge"><title>g-&gt;f</title>
<path style="fill: none; stroke: black;" d="M171,-72C171,-64 171,-55 171,-46"/>
<polygon style="fill: black; stroke: black;" points="174.5,-46 171,-36 167.5,-46 174.5,-46"/>
</g>
<!-- h -->
<g id="node15" class="node"><title>h</title>
<ellipse style="fill: none; stroke: black;" cx="243" cy="-18" rx="27" ry="18"/>
<text text-anchor="middle" x="243" y="-13.4" style="font-family: Times New Roman;">h</text>
</g>
<!-- g&#45;&gt;h -->
<g id="edge14" class="edge"><title>g-&gt;h</title>
<path style="fill: none; stroke: black;" d="M186,-75C196,-65 209,-52 221,-40"/>
<polygon style="fill: black; stroke: black;" points="223.404,-42.546 228,-33 218.454,-37.5962 223.404,-42.546"/>
</g>
</g>
</svg>